<svg width="651" height="113" viewBox="0 0 651 113" fill="none" xmlns="http://www.w3.org/2000/svg">
<path d="M352.602 64.5585C351.416 59.3033 351.433 54.3804 352.835 49.4798C356.167 37.8236 364.134 31.0702 375.782 29.1169C393.3 26.1792 406.837 35.0762 410.825 50.1869C415.577 68.1904 402.18 85.8051 383.564 86.0332C367.388 86.2314 357.164 79.224 352.602 64.5585ZM389.144 37.5728C380.641 35.3148 372.716 36.069 366.339 42.7267C360.465 48.8585 359.265 56.2853 361.726 64.2437C364.451 73.0524 373.846 79.4035 382.68 78.6979C393.428 77.8394 400.95 71.5353 402.525 62.0664C404.373 50.9505 399.616 41.9448 389.144 37.5728Z" fill="#5C5959"/>
<path d="M547.282 80.988C532.642 91.3127 515.9 84.8787 512.927 67.8049C511.509 59.6649 515.417 50.3941 521.994 46.2973C529.523 41.6067 538.962 42.0447 546.185 47.415C546.477 47.6321 546.798 47.8096 547.714 48.3924C547.714 42.4556 547.701 36.93 547.718 31.4046C547.731 27.0578 550.383 25.2936 554.447 26.815C555.945 27.3755 556.116 28.573 556.116 29.8252C556.124 47.273 556.089 64.7208 556.102 82.1686C556.104 84.6106 554.911 85.1982 552.627 85.3842C549.222 85.6615 547.39 84.6436 547.282 80.988ZM537.703 78.2395C544.124 76.5266 547.14 71.9326 547.599 65.7025C548.001 60.2473 546.658 55.2388 541.4 52.2747C536.237 49.3645 528.946 50.2285 525.055 54.1076C520.879 58.2705 519.954 66.023 522.934 71.8827C525.472 76.8735 530.987 79.4081 537.703 78.2395Z" fill="#5C5959"/>
<path d="M580.911 76.0804C587.491 80.0851 593.741 79.5792 599.689 75.4621C602.106 73.789 602.91 75.4406 604.152 76.8517C605.537 78.425 605.897 79.7913 603.977 81.2027C596.231 86.8989 587.911 87.4595 579.258 83.7517C571.132 80.2699 566.746 72.722 567.222 62.8594C567.638 54.2553 571.774 47.9639 579.915 44.7074C594.216 38.9875 609.033 48.8253 608.861 63.7386C608.829 66.5453 607.803 67.4168 605.12 67.3841C596.9 67.2839 588.678 67.3449 580.457 67.3799C579.114 67.3856 577.711 67.08 576.106 68.0244C576.276 71.3701 578.158 73.8149 580.911 76.0804ZM578.062 61.5106C584.26 61.5277 590.459 61.5766 596.657 61.5497C600.235 61.5342 600.818 60.56 599.386 57.266C597.489 52.9063 592.976 50.1551 588.015 50.3349C582.642 50.5297 577.789 54.0077 576.305 58.6504C575.877 59.989 575.658 61.1077 578.062 61.5106Z" fill="#5C5959"/>
<path d="M623.213 45.5985C631.144 42.1371 638.732 43.0393 646.36 45.7565C649.077 46.7243 648.451 48.2564 647.713 50.1378C646.972 52.0286 646.383 53.5154 643.739 52.3569C639.335 50.428 634.68 49.7436 629.903 50.8677C627.448 51.4455 625.393 52.5733 625.279 55.4609C625.163 58.4293 627.213 59.5675 629.677 60.1679C633.781 61.168 637.953 61.9257 642.003 63.1059C647.619 64.7425 650.041 67.6945 650.445 72.7461C650.796 77.1315 648.101 81.6223 643.45 83.7086C634.871 87.5563 626.416 86.6045 618.339 82.2337C614.036 79.9046 618.142 77.4946 618.366 75.2099C620.103 74.6832 621.01 75.7699 622.06 76.3216C626.517 78.6633 631.279 79.3652 636.19 78.7585C638.954 78.4172 641.762 77.5566 642.04 74.0812C642.32 70.5928 639.511 69.7859 636.988 69.1143C633.149 68.0921 629.206 67.4589 625.365 66.4446C620.457 65.1488 617.148 62.1151 616.861 56.8285C616.6 52.0058 618.48 48.0887 623.213 45.5985Z" fill="#5C5959"/>
<path d="M343.142 60.3465C344.433 66.8795 344.195 67.1699 337.718 67.1823C330.123 67.1968 322.527 67.1826 314.932 67.222C313.591 67.229 312.191 66.9285 310.925 67.6521C311.206 72.9309 315.124 78.0572 320.348 79.2305C325.563 80.4018 330.806 80.3434 335.281 76.7364C337.019 75.3353 338.322 74.926 339.885 77.0165C341.564 79.2615 339.844 80.1263 338.506 81.1647C329.973 87.7895 315.696 86.4177 308.948 78.3501C301.886 69.9069 302.807 56.5563 310.739 49.222C319.715 40.9229 339.156 42.1384 343.142 60.3465ZM326.801 62.3461C330.21 62.1619 333.674 62.7594 337.043 61.9339C336.368 54.0328 331.257 49.7699 323.086 50.0112C316.214 50.2143 310.95 55.3185 310.855 62.3451C315.918 62.3451 320.987 62.3451 326.801 62.3461Z" fill="#5C5959"/>
<path d="M264.102 53.9994C271.411 69.9342 261.946 85.6288 245.544 85.2605C234.093 85.0033 225.87 76.3979 225.901 64.7038C225.932 52.9693 234.139 44.5682 245.663 44.3591C253.477 44.2173 259.715 47.007 264.102 53.9994ZM232.742 60.0574C232.082 62.3703 232.02 64.7254 232.27 67.0973C232.92 73.2641 237.367 78.3411 243.081 79.4531C249.809 80.7625 256.209 77.7187 259.079 71.8441C262.814 64.1995 259.725 54.6375 252.487 51.2932C246.288 48.4286 236.087 50.0309 232.742 60.0574Z" fill="#5C5959"/>
<path d="M456.642 80.5188C451.336 68.3381 446.145 56.4229 440.906 44.3963C448.036 42.7117 448.809 43.0751 451.333 48.8237C454.637 56.3483 457.932 63.8767 461.239 71.3998C461.68 72.4022 461.925 73.532 463.188 74.4218C466.969 65.6816 470.719 57.0447 474.442 48.3959C476.679 43.1988 477.46 42.8166 483.279 44.2969C483.994 45.774 482.968 46.9213 482.457 48.1252C477.833 59.0113 473.144 69.8697 468.54 80.7646C467.433 83.3861 466.483 85.4524 462.822 85.4718C459.13 85.4913 457.704 83.7327 456.642 80.5188Z" fill="#5C5959"/>
<path d="M204.904 52.3355C194.405 46.4309 184.555 52.0539 184.434 63.7618C184.373 69.6203 184.354 75.4809 184.439 81.3387C184.476 83.8487 183.512 85.0053 180.95 84.9977C178.309 84.9899 177.992 83.4352 178 81.3107C178.043 70.4653 178.008 59.6196 178.022 48.7739C178.025 46.8228 177.596 44.7034 180.713 44.479C183.681 44.2653 184.396 45.8286 184.47 48.2719C184.476 48.4544 184.747 48.6288 185.042 48.984C189.962 44.8087 195.673 43.3953 202.027 44.3769C209.53 45.5362 214.637 51.2441 215.203 58.9031C215.756 66.3808 214.987 73.8476 215.232 81.3175C215.299 83.3614 214.773 84.6019 212.346 84.6077C209.968 84.6133 208.916 83.7113 208.918 81.3351C208.926 74.6037 208.853 67.8723 208.841 61.1408C208.835 57.7176 207.72 54.7986 204.904 52.3355Z" fill="#5C5959"/>
<path d="M431.805 27.8668C431.999 46.0833 432.007 63.9946 432.127 81.9051C432.15 85.2911 430.098 85.1943 427.701 85.2969C424.906 85.4168 423.605 84.5346 423.62 81.5239C423.696 66.9679 423.637 52.4114 423.628 37.855C423.627 36.1132 423.635 34.3714 423.64 32.6297C423.658 26.407 425.697 25.1189 431.805 27.8668Z" fill="#5C5959"/>
<path d="M278.556 67.046C278.556 62.3188 278.487 57.9586 278.577 53.6017C278.627 51.1506 277.836 49.8168 275.159 49.9933C273.288 50.1166 271.676 49.8137 271.61 47.3026C271.543 44.7602 273.117 44.3946 275.018 44.5429C279.007 44.854 278.456 42.0646 278.655 39.5849C278.815 37.6017 277.66 34.7807 281.398 34.6236C283.696 34.527 284.74 35.2058 284.822 37.7374C285.037 44.4169 285.148 44.4098 291.994 44.5273C292.863 44.5422 293.743 44.5462 294.598 44.6795C296.144 44.9203 296.509 46.0773 296.541 47.4268C296.575 48.889 295.944 49.8156 294.416 49.9492C293.673 50.0141 292.924 50.0202 292.177 50.029C283.864 50.1274 284.852 48.9343 284.795 57.3619C284.762 62.0941 284.723 66.8288 284.836 71.5588C285.009 78.8032 287.894 80.9971 294.826 79.0225C296.764 78.4706 297.524 79.108 298.284 80.6681C299.127 82.3981 298.26 83.1597 296.898 83.8714C290.716 87.1004 279.552 85.7526 278.935 75.2371C278.782 72.6311 278.68 70.022 278.556 67.046Z" fill="#5C5959"/>
<path d="M500.918 45.6302C500.972 57.7956 500.881 69.6148 501.04 81.4305C501.086 84.7745 499.552 85.2856 496.731 85.3335C493.73 85.3845 492.48 84.439 492.511 81.3006C492.618 70.3544 492.508 59.4062 492.551 48.459C492.557 46.8253 491.896 44.407 494.123 44.0165C496.331 43.6294 499.086 42.513 500.918 45.6302Z" fill="#5C5959"/>
<path d="M501.934 30.1058C501.88 34.9515 498.736 37.6661 495 36.3341C492.536 35.4554 491.128 33.6091 491.335 30.9541C491.525 28.5238 492.825 26.7753 495.385 26.3285C498.436 25.7957 500.72 26.776 501.934 30.1058Z" fill="#5C5959"/>
<path d="M43.6579 53.7812C45.7694 60.1778 47.8763 66.4132 49.8729 72.6838C50.2996 74.024 50.992 74.5465 52.3493 74.6571C54.5102 74.8331 56.6492 74.5591 58.798 74.5588C76.9307 74.5562 95.0634 74.5339 113.196 74.6113C114.854 74.6184 115.125 73.6999 115.504 72.5656C119.796 59.708 124.103 46.8555 128.38 33.9927C128.866 32.5296 129.687 31.1482 129.667 29.2268C126.153 29.2268 122.678 29.2268 119.407 29.2268C118.877 28.4142 119.235 28.0799 119.521 27.7286C120.717 26.2635 122.1 24.912 123.066 23.3085C124.624 20.7204 126.782 19.9173 129.634 20.307C130.66 20.4471 131.721 20.3069 132.762 20.359C137.094 20.5758 140.298 24.5041 139.329 28.7468C138.167 33.8321 136.124 38.6582 134.502 43.6095C130.912 54.5718 127.243 65.5085 123.599 76.4529C121.785 81.9012 119.448 83.5747 113.63 83.5778C92.8882 83.5888 72.1463 83.6002 51.4044 83.5851C48.6776 83.5831 46.5675 84.4902 45.4255 87.1C44.3954 89.4545 44.9168 91.5963 46.5159 93.4646C47.5952 94.7256 48.7931 95.3369 50.5989 94.3392C53.1942 92.9053 56.0164 93.0897 58.7278 94.191C59.7221 94.5948 60.6936 94.7914 61.7565 94.79C75.6496 94.7721 89.5428 94.7639 103.436 94.7876C104.586 94.7895 105.588 94.4732 106.627 94.0503C110.346 92.5378 115.069 93.5525 117.652 96.3474C120.331 99.2464 121.037 103.737 119.371 107.283C117.599 111.054 113.918 113.223 109.721 112.969C105.675 112.724 102.068 109.825 101.055 105.655C100.637 103.936 99.8509 103.569 98.2396 103.579C87.8691 103.643 77.4978 103.643 67.1272 103.583C65.4651 103.573 64.6431 103.865 64.2017 105.739C63.1061 110.389 58.6738 113.279 53.6934 112.979C49.4633 112.723 45.7231 109.169 45.0941 104.67C44.9433 103.592 44.5365 102.935 43.622 102.347C34.5404 96.5168 33.4538 85.8806 41.1976 78.4677C42.0509 77.6508 41.9228 76.963 41.6206 76.0375C37.4555 63.2771 33.3119 50.5097 29.1643 37.7435C26.2645 28.8179 23.3331 19.9023 20.4995 10.9558C20.001 9.38195 19.2482 8.81229 17.5818 8.84626C12.4963 8.94995 7.40582 8.81115 2.32045 8.91805C0.485021 8.95663 -0.109871 8.30821 0.016203 6.55035C0.132577 4.92807 0.073948 3.28993 0.0290086 1.66051C-0.00249199 0.51862 0.425889 0.000610613 1.61909 0.00819582C7.55439 0.0458964 13.4931 -0.0748264 19.4244 0.0874788C24.126 0.216133 27.0315 2.5537 28.5324 7.03193C29.7333 10.615 30.9925 14.1898 31.9383 17.8427C32.4749 19.9148 33.4734 20.3926 35.4912 20.385C56.4937 20.3056 77.4966 20.3283 98.4994 20.3226C99.4688 20.3224 100.438 20.3226 101.312 20.3226C101.756 21.1322 101.235 21.4507 100.918 21.83C99.3732 23.6827 97.724 25.4585 96.3028 27.4013C95.3014 28.7703 94.1514 29.215 92.4956 29.2108C74.5586 29.166 56.6213 29.185 38.6842 29.1988C37.8523 29.1994 36.9892 29.0328 35.8512 29.6221C38.4292 37.5958 41.0215 45.6142 43.6579 53.7812Z" fill="#5C5959"/>
<path d="M69.7351 48.3845C72.4487 50.9288 75.0649 53.3746 77.6811 55.8204C78.1339 56.133 78.3906 55.5218 78.7499 55.0966C89.6501 42.1951 100.541 29.2859 111.435 16.3787C111.811 15.9328 112.148 15.348 112.791 15.3427C116.337 15.313 119.884 15.3285 123.673 15.3285C122.943 16.9838 121.807 17.902 120.911 18.9615C107.013 35.3883 93.0662 51.7735 79.1629 68.1956C78.2645 69.2567 77.7006 69.3222 76.7073 68.2992C70.1188 61.5139 63.5004 54.757 56.827 48.0553C55.6109 46.834 55.5611 46.0194 56.9008 44.9187C58.1562 43.8874 59.2992 42.7062 60.4078 41.5131C61.3731 40.4742 62.1082 40.4266 63.1144 41.5288C65.2246 43.8399 67.4561 46.0403 69.7351 48.3845Z" fill="#229808"/>
</svg>
